<svg height="511pt" viewBox="0 0 511.99986 511" width="511pt" xmlns="http://www.w3.org/2000/svg"><path d="m500.714844 262.140625c0 138.269531-112.089844 250.359375-250.355469 250.359375-50.65625 0-97.792969-15.042969-137.195313-40.90625-13.519531-8.871094-62.261718-57.023438-72.261718-72.257812-25.859375-39.402344-40.902344-86.542969-40.902344-137.195313 0-138.269531 112.089844-250.355469 250.359375-250.355469 138.265625 0 250.355469 112.085938 250.355469 250.355469zm0 0" fill="#92dff4"/><path d="m55.179688 215.335938v-10.21875c0-2.820313 2.289062-5.109376 5.109374-5.109376h235.03125c2.820313 0 5.109376 2.289063 5.109376 5.109376v10.21875c0 2.820312-2.289063 5.109374-5.109376 5.109374h-235.03125c-2.820312 0-5.109374-2.289062-5.109374-5.109374zm194.15625 142.859374v-10.21875c0-2.820312-2.289063-5.109374-5.109376-5.109374h-183.9375c-2.820312 0-5.109374 2.289062-5.109374 5.109374v10.21875c0 2.824219 2.289062 5.109376 5.109374 5.109376h183.9375c2.820313 0 5.109376-2.285157 5.109376-5.109376zm-189.046876-101.984374h183.9375c2.820313 0 5.109376-2.289063 5.109376-5.109376v-10.21875c0-2.820312-2.285157-5.109374-5.109376-5.109374h-183.9375c-2.820312 0-5.109374 2.285156-5.109374 5.109374v10.21875c0 2.820313 2.289062 5.109376 5.109374 5.109376zm0-142.859376h235.03125c2.820313 0 5.109376-2.289062 5.109376-5.109374v-10.21875c0-2.824219-2.289063-5.109376-5.109376-5.109376h-229.445312c-3.699219 4.03125-7.261719 8.1875-10.695312 12.457032v2.871094c0 2.820312 2.289062 5.109374 5.109374 5.109374zm0 214.1875h235.03125c2.820313 0 5.109376-2.285156 5.109376-5.109374v-10.21875c0-2.820313-2.289063-5.109376-5.109376-5.109376h-235.03125c-2.820312 0-5.109374 2.289063-5.109374 5.109376v10.21875c0 2.824218 2.289062 5.109374 5.109374 5.109374zm0-178.421874h183.9375c2.820313 0 5.109376-2.289063 5.109376-5.109376v-10.21875c0-2.824218-2.285157-5.113281-5.109376-5.113281h-183.9375c-2.820312 0-5.109374 2.289063-5.109374 5.113281v10.21875c0 2.820313 2.289062 5.109376 5.109374 5.109376zm189.046876 275.5c-8.464844 0-15.328126 6.863281-15.328126 15.328124 0 8.464844 6.863282 15.328126 15.328126 15.328126 8.464843 0 15.328124-6.863282 15.328124-15.328126 0-8.464843-6.863281-15.328124-15.328124-15.328124zm51.09375 0c-8.464844 0-15.328126 6.863281-15.328126 15.328124 0 8.464844 6.863282 15.328126 15.328126 15.328126 8.464843 0 15.328124-6.863282 15.328124-15.328126 0-8.464843-6.863281-15.328124-15.328124-15.328124zm51.09375 0c-8.464844 0-15.328126 6.863281-15.328126 15.328124 0 8.464844 6.859376 15.328126 15.328126 15.328126 8.464843 0 15.328124-6.863282 15.328124-15.328126 0-8.464843-6.863281-15.328124-15.328124-15.328124zm0 0" fill="#7ed4f2"/><path d="m107.257812 435.824219-30.582031-30.585938c-.6875-.6875-.6875-1.796875 0-2.484375l150.5-150.5 33.070313 33.070313-150.5 150.5c-.6875.683593-1.800782.683593-2.488282 0zm0 0" fill="#0069a3"/><path d="m153.953125 442c-3.988281 3.992188-10.460937 3.992188-14.449219 0l-3.898437-3.898438c-.402344 7.269532-3.375 14.421876-8.929688 19.976563l-13.515625 13.515625c-28.753906-18.871094-53.371094-43.515625-72.242187-72.269531l13.503906-13.503907c5.550781-5.550781 12.707031-8.523437 19.972656-8.925781l-3.898437-3.898437c-3.992188-3.992188-3.992188-10.460938 0-14.453125 3.992187-3.988281 10.460937-3.988281 14.453125 0l69.003906 69.007812c3.992187 3.988281 3.992187 10.460938 0 14.449219zm0 0" fill="#fa0"/><path d="m107.890625 381.484375c-3.992187-3.988281-10.460937-3.988281-14.449219 0-2.628906 2.628906-3.476562 6.28125-2.613281 9.605469.933594 3.601562.035156 7.421875-2.589844 10.050781l-26.085937 26.082031c-7.703125-8.777344-14.8125-18.085937-21.246094-27.886718l13.515625-13.515626c5.550781-5.554687 12.707031-8.523437 19.972656-8.929687l-3.648437-3.648437c-3.847656-3.847657-4.304688-10.113282-.710938-14.203126 3.933594-4.480468 10.765625-4.644531 14.914063-.496093zm0 0" fill="#f48c03"/><path d="m401.621094 378.128906c-98.484375 49.113282-218.136719 9.089844-267.25-89.394531-49.113282-98.480469-9.089844-218.132813 89.394531-267.246094s218.132813-9.09375 267.246094 89.390625 9.089843 218.136719-89.390625 267.25zm0 0" fill="#006cbc"/><path d="m401.621094 378.128906c-71.289063 35.550782-153.65625 24.386719-212.34375-21.835937l-23.449219 23.449219c-4.730469 4.730468-12.433594 4.675781-17.09375-.160157-4.578125-4.75-4.226563-12.398437.433594-17.058593l15.167969-15.167969c3.859374-3.859375 3.988281-10.042969.335937-14.09375-5.050781-5.605469-9.820313-11.539063-14.265625-17.792969-29.167969-91.933594 12.078125-193.960938 101.097656-238.355469 89.023438-44.394531 195.332032-15.953125 251.214844 62.660157 29.167969 91.933593-12.078125 193.960937-101.097656 238.355468zm0 0" fill="#08c"/><path d="m462.902344 250.050781c-27.75 82.957031-117.496094 127.714844-200.453125 99.964844-82.960938-27.75-127.714844-117.496094-99.964844-200.453125 27.746094-82.957031 117.492187-127.714844 200.453125-99.964844 82.957031 27.75 127.710938 117.496094 99.964844 200.453125zm0 0" fill="#97f0f2"/><path d="m262.449219 350.015625c-72.304688-24.183594-115.578125-95.460937-107.136719-168.296875 17.476562-43.929688 50.550781-81.84375 96.191406-104.605469 45.640625-22.757812 95.824219-26.367187 141.429688-13.894531 63.253906 37.078125 94.152344 114.53125 69.964844 186.832031-27.746094 82.957031-117.492188 127.714844-200.449219 99.964844zm0 0" fill="#c0fbff"/><path d="m300.429688 205.117188v10.21875c0 2.820312-2.289063 5.109374-5.109376 5.109374h-139.664062c-.886719-6.78125-1.34375-13.609374-1.351562-20.4375h141.015624c2.820313 0 5.109376 2.289063 5.109376 5.109376zm-5.109376 101.984374h-99.125c1.464844 1.589844 2.957032 3.160157 4.496094 4.703126 5.789063 5.785156 11.910156 11.03125 18.308594 15.734374h76.320312c2.820313 0 5.109376-2.285156 5.109376-5.109374v-10.21875c0-2.820313-2.289063-5.109376-5.109376-5.109376zm-45.984374-56v-10.21875c0-2.820312-2.289063-5.109374-5.109376-5.109374h-85.796874c1.605468 6.914062 3.671874 13.746093 6.21875 20.4375h79.578124c2.820313 0 5.109376-2.289063 5.109376-5.109376zm45.984374-158.1875h-99.5c-5.921874 6.464844-11.214843 13.304688-15.871093 20.4375h115.371093c2.820313 0 5.109376-2.289062 5.109376-5.109374v-10.21875c0-2.824219-2.289063-5.109376-5.109376-5.109376zm-45.984374 51.09375v-10.21875c0-2.824218-2.289063-5.113281-5.109376-5.113281h-73.09375c-3.339843 6.648438-6.179687 13.476563-8.523437 20.4375h81.617187c2.820313.003907 5.109376-2.285156 5.109376-5.105469zm0 0" fill="#84deea"/><path d="m409.183594 291.667969c5.984375 5.984375 5.984375 15.691406 0 21.675781l-14.453125 14.453125 4.621093 4.621094c-20.363281 13.335937-43.125 21.492187-66.417968 24.476562-1.296875-5.070312.023437-10.675781 3.992187-14.648437l14.453125-14.449219-14.453125-14.453125c-5.984375-5.984375-5.984375-15.691406 0-21.675781s15.691407-5.984375 21.675781 0l14.453126 14.453125 14.449218-14.453125c5.988282-5.984375 15.691406-5.984375 21.679688 0zm-14.453125-76.277344 14.453125-14.449219c5.984375-5.988281 5.984375-15.691406 0-21.679687-5.988282-5.984375-15.691406-5.984375-21.679688 0l-14.449218 14.453125-14.453126-14.453125c-5.984374-5.984375-15.691406-5.984375-21.675781 0-5.984375 5.988281-5.984375 15.691406 0 21.679687l14.453125 14.449219-14.453125 14.453125c-5.984375 5.984375-5.984375 15.691406 0 21.675781 2.992188 2.992188 6.914063 4.488281 10.839844 4.488281 3.921875 0 7.84375-1.496093 10.835937-4.488281l14.453126-14.453125 14.453124 14.453125c2.992188 2.992188 6.914063 4.488281 10.835938 4.488281 3.925781 0 7.847656-1.496093 10.839844-4.488281 5.984375-5.984375 5.984375-15.691406 0-21.675781zm0 0" fill="#ff895a"/><path d="m336.925781 229.84375 14.453125-14.453125-14.453125-14.449219c-5.984375-5.988281-5.984375-15.691406 0-21.679687.238281-.238281.492188-.449219.742188-.667969 1.058593 1.457031 2.238281 2.855469 3.554687 4.167969l25.402344 25.40625c3.992188 3.988281 3.992188 10.460937 0 14.449219l-25.402344 25.40625c-1.316406 1.3125-2.496094 2.710937-3.554687 4.167968-.25-.21875-.503907-.433594-.742188-.671875-5.984375-5.984375-5.984375-15.691406 0-21.675781zm4.296875 65.324219c-1.316406-1.316407-2.496094-2.710938-3.554687-4.167969-.25.21875-.503907.429688-.742188.667969-5.984375 5.988281-5.984375 15.691406 0 21.679687l14.453125 14.449219-14.453125 14.453125c-3.96875 3.96875-5.289062 9.574219-3.992187 14.644531 4.800781-.613281 9.582031-1.445312 14.324218-2.5l19.367188-19.371093c3.992188-3.992188 3.992188-10.460938 0-14.449219zm0 0" fill="#ff6466"/><path d="m433.890625 88.019531-56.605469 56.605469c-2.992187 2.992188-6.914062 4.492188-10.835937 4.492188-3.925781 0-7.847657-1.496094-10.839844-4.492188l-28.902344-28.902344c-5.988281-5.984375-5.988281-15.691406 0-21.675781 5.984375-5.988281 15.691407-5.988281 21.675781 0l18.0625 18.0625 45.769532-45.765625c5.984375-5.984375 15.691406-5.984375 21.675781 0 5.988281 5.984375 5.988281 15.691406 0 21.675781zm0 0" fill="#02cc69"/><path d="m433.890625 66.34375c5.988281 5.984375 5.988281 15.691406.003906 21.675781l-44.769531 44.769531c-2.996094 2.992188-6.917969 4.488282-10.839844 4.488282-3.925781 0-7.847656-1.496094-10.839844-4.488282l-28.902343-28.902343c-3.800781-3.800781-5.179688-9.101563-4.152344-13.996094 4.894531-1.023437 10.191406.355469 13.992187 4.15625l18.0625 18.0625 45.769532-45.765625c5.988281-5.984375 15.691406-5.984375 21.675781 0zm0 0" fill="#54d680"/></svg>