<svg id="Capa_1" enable-background="new 0 0 512 512" height="512" viewBox="0 0 512 512" width="512" xmlns="http://www.w3.org/2000/svg"><g><path d="m512 256c0 117.024-78.521 215.709-185.752 246.242-2.619.746-6.083-3.19-8.736-2.526-4.521 1.131-9.09 2.142-13.704 3.03-2.741.527-4.67 5.652-7.442 6.091-5.074.804-10.198 1.458-15.367 1.959-8.226.797-14.432-11.514-22.867-11.514-88.181 0-165.949-44.585-211.991-112.442-5.461-8.049-12.609-3.707-17.143-12.375-18.522-35.424-28.998-75.721-28.998-118.465 0-141.385 114.615-256 256-256s256 114.615 256 256z" fill="#3d4ec6"/><path d="m481.106 242.954c0 110.516-89.591 200.106-200.106 200.106s-200.106-89.591-200.106-200.106 89.59-200.107 200.106-200.107 200.106 89.591 200.106 200.107z" fill="#5766ce"/><path d="m281 318.989v191.805c-8.226.797-16.565 1.206-25 1.206-98.641 0-184.251-55.79-227-137.536v-55.475c0-12.316 2.006-24.164 5.709-35.235 1.841-5.503 16.25 1.079 18.892-4.002 18.493-35.567 55.678-59.859 98.537-59.859l17.873-11.893c29.291 0 55.932 11.347 75.768 29.884 1.965 1.837-.506 6.855 1.321 8.828 7.21 7.787 13.318 16.61 18.075 26.221 1.355 2.738 6.97 2.429 8.1 5.289 4.985 12.621 7.725 26.374 7.725 40.767z" fill="#ffc14f"/><path d="m63.141 313.339c-.094 1.871-.141 3.755-.141 5.65v105.203c-13.186-15.118-24.624-31.798-34-49.728v-55.475c0-12.316 2.006-24.164 5.709-35.235 14.728-44.025 31.341-28.431 28.432 29.585z" fill="#ffb52d"/><path d="m206.548 395v112.227c-10.231-2.002-20.244-4.614-30-7.796v-104.431c0-8.284 6.716-15 15-15s15 6.716 15 15zm-88.096-15c-8.284 0-15 6.716-15 15v66.605c9.514 7.07 19.535 13.496 30 19.212v-85.817c0-8.284-6.716-15-15-15zm43.997-172c5.756 7.149 10.228 15.376 13.064 24.332 4.214-1.509 8.754-2.332 13.487-2.332 22.091 0 40 17.909 40 40s-17.909 40-40 40c-9.725 0-18.639-3.471-25.572-9.241-13.714 17.784-35.233 29.241-59.428 29.241-31.234 0-58.01-19.093-69.29-46.245 14.728-44.026 56.298-75.755 105.279-75.755zm11.551 122c-8.284 0-15 6.716-15 15s6.716 15 15 15 15-6.716 15-15-6.716-15-15-15zm71.778-92.115c-4.203 4.472-6.778 10.493-6.778 17.115 0 13.807 11.193 25 25 25 3.277 0 6.406-.631 9.274-1.777-6.102-15.444-15.569-29.191-27.496-40.338z" fill="#ffa90b"/><path d="m324.31 175.252c2.404-100.572 133.444-100.572 135.847 0 .051 2.126.076 4.293.076 6.503 0 70.719-26.176 171.444-68 216.008-41.824-44.564-68-145.29-68-216.008.001-2.21.027-4.377.077-6.503z" fill="#ffc14f"/><path d="m415.234 365.214c-28.195-50.867-45-126.795-45-183.459 0-2.21.025-4.377.076-6.503.92-38.523 20.715-62.29 44.924-71.302 24.209 9.011 44.003 32.779 44.924 71.302.051 2.126.076 4.293.076 6.503 0 56.663-16.805 132.592-45 183.459z" fill="#ffcd71"/><path d="m346.286 159.045c1.626-68.034 90.271-68.034 91.897 0 .034 1.438.052 2.904.052 4.399 0 47.839-17.707 115.977-46 146.123-28.293-30.146-46-98.284-46-146.123-.001-1.495.016-2.961.051-4.399z" fill="#fff68e"/><path d="m346.286 159.045c1.626-68.034 90.271-68.034 91.897 0 .034 1.438.052 2.904.052 4.399 0 1.993-.031 4.022-.092 6.081-1.747 59.022-90.069 59.022-91.817 0-.061-2.06-.092-4.088-.092-6.081 0-1.495.017-2.961.052-4.399z" fill="#fffac1"/><path d="m359.395 217.438c-1.629 1.643-3.311 3.298-5.046 4.965-9.52 9.151-20.336 18.386-32.066 27.419-3.638-22.059-5.557-43.565-5.557-62.956 0-2.359.029-4.672.085-6.941.956-38.458 20.246-63.138 44.732-74.041 29.249 24.457 38.169 70.903-2.148 111.554z" fill="#20b7a1"/><path d="m467.657 179.926c-.956-38.458-20.246-63.138-44.732-74.041-29.25 24.456-38.169 70.902 2.148 111.553 1.629 1.643 3.311 3.298 5.046 4.965 9.52 9.151 20.336 18.386 32.066 27.419 3.638-22.059 5.557-43.565 5.557-62.956 0-2.358-.028-4.671-.085-6.94zm-108.262 37.512c-1.629 1.643-3.311 3.298-5.046 4.965-5.175 4.974-10.734 9.974-16.613 14.952-1.683-16.904-2.56-33.263-2.56-48.343 0-2.359.021-4.672.064-6.941.683-36.339 13.735-60.377 30.781-72.113 25.578 25.294 31.552 68.985-6.626 107.48z" fill="#24d3b5"/><path d="m510.906 279.823h-42.336l-24.265 24.265c-3.905 3.905-10.237 3.905-14.142 0-3.905-3.905-3.905-10.237 0-14.142l10.123-10.123h-130.286c-5.523 0-10-4.478-10-10 0-5.523 4.477-10 10-10h201.972c-.099 6.733-.457 13.403-1.066 20z" fill="#69564e"/><path d="m442.234 79.823c0 27.614-22.386 50-50 50s-50-22.386-50-50c0-12.903 4.888-24.664 12.913-33.534 4.205-16.376 12.267-29.344 21.155-35.042 1.592 2.153 2.968 4.725 4.104 7.638 2.827-8.099 6.934-14.682 11.829-18.886 4.895 4.204 9.002 10.786 11.829 18.886 1.136-2.913 2.511-5.485 4.103-7.638 8.888 5.698 16.95 18.666 21.155 35.042 8.024 8.87 12.912 20.631 12.912 33.534z" fill="#ffcd71"/><path d="m442.234 79.823c0 27.614-22.386 50-50 50s-50-22.386-50-50c0-5.957 1.043-11.671 2.954-16.969 6.949 19.261 25.389 33.031 47.046 33.031s40.097-13.769 47.046-33.031c1.911 5.298 2.954 11.012 2.954 16.969z" fill="#ffc14f"/><path d="m408.234 84.911c0 11.016-6.524 20.542-16 25.089-9.477-4.547-16-14.073-16-25.089 0-.459.011-.915.034-1.369.978-19.8 30.955-19.8 31.932 0 .023.454.034.91.034 1.369z" fill="#f29500"/><path d="m406.789 77.472c-2.424 5.418-7.722 9.866-14.555 12.351-6.833-2.485-12.132-6.933-14.555-12.351 5.309-11.706 23.801-11.706 29.11 0z" fill="#ffb52d"/><path d="m377.234 52.323v5c0 2.761-2.239 5-5 5-2.761 0-5-2.239-5-5v-5c0-2.761 2.239-5 5-5 2.762 0 5 2.239 5 5zm35-5c-2.761 0-5 2.239-5 5v5c0 2.761 2.239 5 5 5 2.761 0 5-2.239 5-5v-5c0-2.761-2.238-5-5-5z" fill="#554640"/><path d="m377.234 254.823v5c0 2.761-2.239 5-5 5-2.761 0-5-2.239-5-5v-5c0-2.761 2.239-5 5-5 2.762 0 5 2.239 5 5zm35-5c-2.761 0-5 2.239-5 5v5c0 2.761 2.239 5 5 5 2.761 0 5-2.239 5-5v-5c0-2.761-2.238-5-5-5zm-55 0c-2.761 0-5 2.239-5 5v5c0 2.761 2.239 5 5 5 2.761 0 5-2.239 5-5v-5c0-2.761-2.238-5-5-5zm70 0c-2.761 0-5 2.239-5 5v5c0 2.761 2.239 5 5 5 2.761 0 5-2.239 5-5v-5c0-2.761-2.238-5-5-5z" fill="#ffb52d"/><path d="m315 51.319c0 2.762-2.238 5-5 5-12.741 0-23.106-10.365-23.106-23.106 0-2.762 2.238-5 5-5s5 2.238 5 5c0 7.227 5.88 13.106 13.106 13.106 2.762 0 5 2.239 5 5zm149.053 312.734c-7.227 0-13.106-5.88-13.106-13.106 0-2.762-2.238-5-5-5s-5 2.238-5 5c0 12.741 10.365 23.106 23.106 23.106 2.762 0 5-2.238 5-5s-2.238-5-5-5zm-239.526-337.921c-2.762 0-5 2.238-5 5 0 3.796-3.089 6.885-6.885 6.885-2.762 0-5 2.238-5 5s2.238 5 5 5c9.311 0 16.885-7.574 16.885-16.885 0-2.762-2.238-5-5-5z" fill="#a6aee5"/><path d="m478.685 226.35c0 2.762-2.238 5-5 5-9.311 0-16.885-7.574-16.885-16.884 0-2.762 2.238-5 5-5s5 2.238 5 5c0 3.796 3.089 6.884 6.885 6.884 2.761 0 5 2.239 5 5zm-148.509 111.766c-2.762 0-5 2.238-5 5 0 3.796-3.088 6.885-6.884 6.885-2.762 0-5 2.238-5 5s2.238 5 5 5c9.31 0 16.884-7.574 16.884-16.885 0-2.762-2.238-5-5-5z" fill="#adebdc"/><path d="m139.989 208h22.46c.147.182.292.365.437.549-55.703 5.533-99.289 52.248-99.88 109.267-12.543-8.202-22.48-20.06-28.297-34.061 14.729-44.026 56.299-75.755 105.28-75.755z" fill="#f29500"/><path d="m195.495 262.38c-12.546 4.919-26.205 7.62-40.495 7.62-61.298 0-110.989-49.692-110.989-110.989 0-38.113 30.897-69.01 69.01-69.01h2.419c5.173-6.582 4.727-16.169-1.337-22.234-1.953-1.953-1.953-5.118 0-7.071s5.118-1.953 7.071 0c7.909 7.909 9.829 19.573 5.76 29.305h.356c6.252-2.03 10.785-7.911 10.785-14.831 0-2.564 2.078-4.643 4.643-4.643 2.564 0 4.643 2.078 4.643 4.643 0 5.553-1.829 10.687-4.917 14.831h19.768s4.422.592.056 1.714c-27.17 6.979-37.268 34.459-37.268 67.295 0 47.009 29.224 87.19 70.495 103.37z" fill="#ffcd71"/><path d="m162.212 90.053c.887-.035 4.852 7.841 5.767 7.841l32.596.426c38.114 0 65.415 22.578 65.415 60.691 0 49.219-32.037 90.954-76.396 105.492-44.358-14.537-76.396-56.273-76.396-105.492-.001-37.199 12.958-67.523 49.014-68.958z" fill="#ffd993"/><path d="m265.989 159.011c0 3.424-.155 6.812-.459 10.156-10.752 6.858-23.522 10.833-37.221 10.833-38.278 0-69.309-31.03-69.309-69.309 0-7.207 1.1-14.157 3.142-20.691h34.837c38.113 0 69.01 30.897 69.01 69.011z" fill="#f29500"/><path d="m377.095 419.343c1.119 8.208-4.629 15.769-12.838 16.887-11.551 1.574-21.825 10.325-28.931 24.641-5.882 11.851-8.975 26.137-9.078 41.371-9.736 2.772-19.709 4.983-29.881 6.594-.855-22.257 3.304-43.607 12.087-61.303 11.664-23.499 30.044-38.07 51.754-41.027 8.21-1.125 15.769 4.628 16.887 12.837zm-315.109-348.396c-7.976 7.04-15.805 14.704-23.431 22.953-13.937 15.075-24.748 33.39-32.099 52.488-28.843 74.936 46.455 105.531 78.053 31.715 8.053-18.813 13.081-39.477 13.608-60.001.288-11.229.024-22.183-.781-32.79-1.477-19.451-20.726-27.272-35.35-14.365zm163.505 107.155c-8.053-18.813-13.081-39.477-13.608-60.001-.288-11.229-.024-22.183.781-32.79 1.477-19.449 20.726-27.271 35.35-14.364 7.976 7.04 15.805 14.704 23.431 22.953 13.938 15.075 24.748 33.39 32.099 52.488 28.842 74.935-46.455 105.53-78.053 31.714z" fill="#ffb52d"/><path d="m376.898 424.774c-1.248 6.172-6.523 10.595-12.759 11.472-11.503 1.617-21.732 10.357-28.814 24.624-.465.938-.913 1.89-1.344 2.858-3.3 7.418-11.928 10.771-19.41 7.617-.093-.039-.186-.078-.278-.118-7.642-3.235-11.072-12.154-7.701-19.736.595-1.339 1.216-2.659 1.861-3.959 11.664-23.499 30.044-38.07 51.754-41.027 9.928-1.359 18.902 7.336 16.691 18.269zm-285.13-353.634c-7.9 6.987-15.656 14.586-23.212 22.759-13.938 15.075-24.748 33.39-32.099 52.488-13.854 35.994-3.681 61.757 14.135 70.634 12.572-5.54 24.99-18.061 33.918-38.92 8.053-18.813 13.081-39.477 13.608-60.001.288-11.229.024-22.183-.781-32.79-.446-5.863-2.507-10.67-5.569-14.17zm197.641 145.881c-12.572-5.54-24.99-18.061-33.918-38.92-8.053-18.813-13.081-39.477-13.608-60.001-.288-11.229-.024-22.183.781-32.79.445-5.864 2.506-10.67 5.569-14.17 7.9 6.987 15.656 14.586 23.212 22.759 13.938 15.075 24.748 33.39 32.099 52.488 13.853 35.994 3.681 61.757-14.135 70.634z" fill="#ffc14f"/><path d="m155.049 255.758h-.098c-13.78 0-24.951-11.171-24.951-24.951v-43.31c0-13.78 11.171-24.951 24.951-24.951h.098c13.78 0 24.951 11.171 24.951 24.951v43.31c0 13.78-11.171 24.951-24.951 24.951z" fill="#ffcd71"/><path d="m174.275 246.679c-4.585 5.545-11.518 9.079-19.275 9.079-13.807 0-25-11.193-25-25v-43.213c0-13.807 11.193-25 25-25 .906 0 1.801.049 2.682.143-3.576 4.324-5.724 9.872-5.724 15.921v43.213c0 12.901 9.772 23.519 22.317 24.857z" fill="#ffc14f"/><path d="m170 260.025v19.596c0 8.284-6.716 15-15 15s-15-6.716-15-15v-19.596c0-8.284 6.716-15 15-15s15 6.716 15 15z" fill="#f76c57"/><path d="m211.694 245.149c-1.07 15.517-13.818 27.983-29.354 28.733-8.365.404-16.046-2.513-21.837-7.547-3.182-2.766-7.821-2.766-11.003 0-5.792 5.034-13.472 7.951-21.838 7.547-15.536-.75-28.285-13.215-29.354-28.733-1.247-18.095 13.062-33.16 30.89-33.16 7.825 0 14.971 2.902 20.422 7.689 3.08 2.705 7.683 2.705 10.764 0 5.451-4.787 12.598-7.689 20.422-7.689 17.826-.001 32.135 15.065 30.888 33.16z" fill="#fffac1"/><path d="m139.969 271.992c-3.355 1.245-6.985 1.927-10.773 1.927-17.102 0-30.965-13.864-30.965-30.965 0-17.102 13.864-30.965 30.965-30.965 3.789 0 7.418.681 10.773 1.927-11.79 4.376-20.191 15.726-20.191 29.039s8.401 24.661 20.191 29.037z" fill="#ffe1aa"/><path d="m125 140c0 5.523-4.477 10-10 10s-10-4.477-10-10 4.477-10 10-10 10 4.477 10 10zm70-10c-5.523 0-10 4.477-10 10s4.477 10 10 10 10-4.477 10-10-4.477-10-10-10z" fill="#554640"/></g></svg>