<svg id="Layer_1" enable-background="new 0 0 512.057 512.057" height="512" viewBox="0 0 512.057 512.057" width="512" xmlns="http://www.w3.org/2000/svg"><g><circle cx="256" cy="256.029" fill="#c8effd" r="256"/><path d="m437.02 75.009c-54.906-54.907-128.106-79.805-201.02-74.206 130.584 10.025 236 119.027 236 255.226 0 136.259-105.474 245.205-236 255.226 72.936 5.6 146.129-19.315 201.02-74.206 100.045-100.046 100.054-261.987 0-362.04z" fill="#a0e1fd"/><path d="m441.03 351.129c-35.358 68.665-106.208 112.9-185.03 112.9-78.788 0-149.656-44.206-185.03-112.9-3.93-7.62-3.29-16.74 1.67-23.8 30.17-42.9 74.53-74.01 124.93-87.59 2.18-.59 4.52-.23 6.42 1 31.546 20.352 72.353 20.43 104.02 0 1.91-1.23 4.24-1.59 6.42-1 50.4 13.58 94.76 44.69 124.92 87.59 4.97 7.059 5.61 16.18 1.68 23.8z" fill="#7acef9"/><circle cx="256" cy="160.029" fill="#7acef9" r="112"/><g fill="#6cb9e7"><path d="m236 49.819c52.25 9.456 92 55.274 92 110.209 0 55.325-39.849 100.799-92 110.213 68.351 12.341 132-39.862 132-110.213 0-69.674-63.249-122.651-132-110.209z"/><path d="m439.35 327.329c-30.16-42.9-74.52-74.01-124.92-87.59-2.18-.59-4.51-.23-6.42 1-3.104 2.002-6.311 3.807-9.598 5.427 42.088 15.745 78.834 44.033 104.938 81.164 4.97 7.06 5.61 16.18 1.68 23.8-31.961 62.065-94.079 105.829-167.03 112.123 84.272 7.272 164.311-36.933 203.03-112.124 3.93-7.62 3.29-16.741-1.68-23.8z"/></g></g></svg>